<svg width="34" height="31" viewBox="0 0 34 31" fill="none" xmlns="http://www.w3.org/2000/svg">
<g clip-path="url(#clip0_298_154)">
<path d="M12.75 14.2083H9.91667V16.7917H12.75V14.2083ZM18.4167 14.2083H15.5833V16.7917H18.4167V14.2083ZM24.0833 14.2083H21.25V16.7917H24.0833V14.2083ZM26.9167 5.16666H25.5V2.58333H22.6667V5.16666H11.3333V2.58333H8.5V5.16666H7.08333C5.51083 5.16666 4.26417 6.32916 4.26417 7.75L4.25 25.8333C4.25 27.2542 5.51083 28.4167 7.08333 28.4167H26.9167C28.475 28.4167 29.75 27.2542 29.75 25.8333V7.75C29.75 6.32916 28.475 5.16666 26.9167 5.16666ZM26.9167 25.8333H7.08333V11.625H26.9167V25.8333Z" fill="#2DBAB1"/>
</g>
<defs>
<clipPath id="clip0_298_154">
<rect width="34" height="31" fill="white"/>
</clipPath>
</defs>
</svg>
