<svg width="31" height="31" viewBox="0 0 31 31" fill="none" xmlns="http://www.w3.org/2000/svg">
<g clip-path="url(#clip0_298_157)">
<path d="M14.2085 11.8317V2.58334C7.75016 3.22917 2.5835 8.77042 2.5835 15.5C2.5835 22.2296 7.75016 27.7708 14.2085 28.4167V19.1683C12.9168 18.6388 11.6252 17.205 11.6252 15.5C11.6252 13.795 12.9168 12.3613 14.2085 11.8317ZM19.1943 14.2083H28.4168C27.7968 8.07292 23.2502 3.19042 16.7918 2.58334V11.8317C18.0835 12.2192 18.7552 13.0975 19.1943 14.2083ZM16.7918 19.1683V28.4167C23.2502 27.8096 27.7968 22.9271 28.4168 16.7917H19.1943C18.7552 17.9025 18.0835 18.7808 16.7918 19.1683Z" fill="#2DBAB1"/>
</g>
<defs>
<clipPath id="clip0_298_157">
<rect width="31" height="31" fill="white"/>
</clipPath>
</defs>
</svg>
